<svg width="28" height="28" viewBox="0 0 28 28" fill="none" xmlns="http://www.w3.org/2000/svg">
<path d="M0.5 6.66699C0.5 5.83856 1.17157 5.16699 2 5.16699H26C26.8284 5.16699 27.5 5.83857 27.5 6.66699V21.3337C27.5 22.1621 26.8284 22.8337 26 22.8337H2C1.17157 22.8337 0.5 22.1621 0.5 21.3337V6.66699Z" fill="white" stroke="#E4E4E4"/>
<path d="M13.999 18.3893C12.9751 19.2482 11.6471 19.7667 10.1959 19.7667C6.95764 19.7667 4.33252 17.1849 4.33252 14.0001C4.33252 10.8152 6.95764 8.2334 10.1959 8.2334C11.6471 8.2334 12.9751 8.7519 13.999 9.61081C15.0228 8.7519 16.3508 8.2334 17.802 8.2334C21.0403 8.2334 23.6654 10.8152 23.6654 14.0001C23.6654 17.1849 21.0403 19.7667 17.802 19.7667C16.3508 19.7667 15.0228 19.2482 13.999 18.3893Z" fill="#ED0006"/>
<path d="M13.9998 18.3889C15.2603 17.3312 16.0596 15.7574 16.0596 14.0001C16.0596 12.2427 15.2603 10.6689 13.9998 9.61119C15.0237 8.75205 16.3519 8.2334 17.8033 8.2334C21.0415 8.2334 23.6667 10.8152 23.6667 14.0001C23.6667 17.1849 21.0415 19.7667 17.8033 19.7667C16.3519 19.7667 15.0237 19.2481 13.9998 18.3889Z" fill="#F9A000"/>
<path d="M13.999 18.3899C15.2598 17.3321 16.0593 15.7582 16.0593 14.0006C16.0593 12.243 15.2599 10.669 13.999 9.61133C12.7382 10.669 11.9387 12.243 11.9387 14.0006C11.9387 15.7582 12.7382 17.3321 13.999 18.3899Z" fill="#FF5E00"/>
</svg>
