<svg width="28" height="28" viewBox="0 0 28 28" fill="none" xmlns="http://www.w3.org/2000/svg">
<path d="M0.5 6.66699C0.5 5.83856 1.17157 5.16699 2 5.16699H26C26.8284 5.16699 27.5 5.83857 27.5 6.66699V21.3337C27.5 22.1621 26.8284 22.8337 26 22.8337H2C1.17157 22.8337 0.5 22.1621 0.5 21.3337V6.66699Z" fill="white" stroke="#E4E4E4"/>
<path fillRule="evenodd" clipRule="evenodd" d="M8.08908 16.6279H6.87916C6.79636 16.6279 6.72595 16.6881 6.71304 16.7698L6.22368 19.8724C6.21396 19.9337 6.26137 19.9888 6.32347 19.9888H6.9011C6.98389 19.9888 7.05431 19.9287 7.06722 19.8468L7.19921 19.01C7.21194 18.928 7.28253 18.8679 7.36515 18.8679H7.74817C8.54519 18.8679 9.00514 18.4822 9.12533 17.718C9.17945 17.3836 9.12762 17.1209 8.971 16.9368C8.79907 16.7349 8.49402 16.6279 8.08908 16.6279ZM8.22867 17.7611C8.16252 18.1953 7.8308 18.1953 7.51005 18.1953H7.32747L7.45555 17.3844C7.46316 17.3355 7.50562 17.2994 7.55516 17.2994H7.63884C7.85733 17.2994 8.06346 17.2994 8.16997 17.4239C8.23342 17.4982 8.25291 17.6086 8.22867 17.7611ZM11.7058 17.7472H11.1264C11.0771 17.7472 11.0344 17.7833 11.0268 17.8323L11.0012 17.9944L10.9606 17.9357C10.8352 17.7536 10.5555 17.6928 10.2764 17.6928C9.63605 17.6928 9.08923 18.1777 8.98271 18.8579C8.92737 19.1972 9.00605 19.5217 9.19853 19.748C9.37512 19.956 9.62778 20.0427 9.92833 20.0427C10.4442 20.0427 10.7303 19.711 10.7303 19.711L10.7045 19.872C10.6947 19.9336 10.7421 19.9888 10.8039 19.9888H11.3258C11.4088 19.9888 11.4788 19.9286 11.4919 19.8467L11.8051 17.8636C11.815 17.8026 11.7677 17.7472 11.7058 17.7472ZM10.8982 18.8749C10.8423 19.2059 10.5795 19.4281 10.2445 19.4281C10.0763 19.4281 9.94175 19.3741 9.85546 19.2719C9.76982 19.1704 9.73724 19.0258 9.7645 18.8648C9.81674 18.5366 10.0839 18.3072 10.4138 18.3072C10.5783 18.3072 10.7121 18.3618 10.8002 18.465C10.8884 18.5692 10.9235 18.7146 10.8982 18.8749ZM14.2094 17.7471H14.7917C14.8732 17.7471 14.9208 17.8386 14.8744 17.9055L12.9379 20.7007C12.9066 20.746 12.8549 20.7729 12.7997 20.7729H12.2182C12.1363 20.7729 12.0885 20.6807 12.1359 20.6137L12.7389 19.7625L12.0976 17.8805C12.0754 17.8151 12.1237 17.7471 12.1933 17.7471H12.7654C12.8398 17.7471 12.9053 17.7959 12.9268 17.8671L13.2671 19.0038L14.0702 17.8209C14.1016 17.7747 14.1539 17.7471 14.2094 17.7471Z" fill="#253B80"/>
<path fillRule="evenodd" clipRule="evenodd" d="M20.5221 19.8726L21.0187 16.7132C21.0263 16.6642 21.0688 16.6281 21.1181 16.6279H21.6772C21.7389 16.6279 21.7863 16.6833 21.7765 16.7445L21.2869 19.847C21.2741 19.9288 21.2037 19.989 21.1208 19.989H20.6215C20.5598 19.989 20.5124 19.9338 20.5221 19.8726ZM16.7193 16.6281H15.5091C15.4265 16.6281 15.3561 16.6883 15.3432 16.77L14.8538 19.8726C14.8441 19.9338 14.8915 19.989 14.9533 19.989H15.5742C15.6319 19.989 15.6813 19.9469 15.6903 19.8896L15.8291 19.0101C15.8419 18.9282 15.9125 18.8681 15.9951 18.8681H16.3779C17.1751 18.8681 17.635 18.4824 17.7553 17.7181C17.8095 17.3838 17.7574 17.121 17.6008 16.937C17.429 16.735 17.1242 16.6281 16.7193 16.6281ZM16.8588 17.7613C16.7929 18.1954 16.4611 18.1954 16.1402 18.1954H15.9578L16.0861 17.3846C16.0937 17.3356 16.1358 17.2995 16.1855 17.2995H16.2691C16.4875 17.2995 16.6938 17.2995 16.8002 17.424C16.8638 17.4984 16.8831 17.6088 16.8588 17.7613ZM20.3357 17.7474H19.7567C19.7069 17.7474 19.6647 17.7835 19.6572 17.8325L19.6316 17.9945L19.5909 17.9358C19.4655 17.7537 19.186 17.6929 18.9068 17.6929C18.2665 17.6929 17.7198 18.1778 17.6133 18.8581C17.5581 19.1974 17.6365 19.5218 17.8289 19.7481C18.0059 19.9562 18.2582 20.0429 18.5587 20.0429C19.0746 20.0429 19.3607 19.7111 19.3607 19.7111L19.3349 19.8722C19.3251 19.9337 19.3726 19.9889 19.4347 19.9889H19.9564C20.039 19.9889 20.1094 19.9287 20.1223 19.8469L20.4357 17.8638C20.4452 17.8028 20.3978 17.7474 20.3357 17.7474ZM19.5281 18.8751C19.4725 19.2061 19.2095 19.4283 18.8744 19.4283C18.7064 19.4283 18.5717 19.3743 18.4853 19.2721C18.3997 19.1705 18.3675 19.0259 18.3944 18.865C18.4469 18.5368 18.7137 18.3074 19.0437 18.3074C19.2082 18.3074 19.3419 18.362 19.4301 18.4651C19.5187 18.5693 19.5537 18.7148 19.5281 18.8751Z" fill="#179BD7"/>
<path d="M17.0559 9.40723C17.0479 9.45813 17.0389 9.51018 17.0286 9.56365C16.6767 11.37 15.4731 11.994 13.9358 11.994H13.1532C12.9652 11.994 12.8068 12.1305 12.7774 12.3159L12.3767 14.8575L12.2632 15.5779C12.2441 15.6996 12.338 15.8094 12.4608 15.8094H13.8491C14.0135 15.8094 14.1531 15.69 14.179 15.5279L14.1927 15.4573L14.4541 13.7986L14.4709 13.7076C14.4964 13.5449 14.6363 13.4255 14.8007 13.4255H15.0084C16.3533 13.4255 17.4063 12.8794 17.7141 11.2992C17.8426 10.639 17.776 10.0878 17.4359 9.70017C17.3329 9.58327 17.2052 9.48629 17.0559 9.40723Z" fill="#179BD7"/>
<path d="M16.6873 9.26007C16.6336 9.24442 16.5781 9.2302 16.5212 9.2174C16.464 9.20489 16.4054 9.1938 16.3451 9.18413C16.1341 9.15 15.9029 9.13379 15.6551 9.13379H13.5641C13.5126 9.13379 13.4638 9.14545 13.42 9.1665C13.3235 9.21285 13.2519 9.30416 13.2345 9.41593L12.7896 12.2333L12.7769 12.3155C12.8062 12.1301 12.9646 11.9936 13.1526 11.9936H13.9353C15.4726 11.9936 16.6762 11.3693 17.028 9.56325C17.0385 9.50978 17.0474 9.45774 17.0553 9.40683C16.9663 9.35962 16.8699 9.31923 16.766 9.28481C16.7405 9.27628 16.7141 9.26803 16.6873 9.26007Z" fill="#222D65"/>
<path d="M13.2348 9.41627C13.2522 9.3045 13.3239 9.2132 13.4203 9.16712C13.4644 9.14607 13.513 9.13441 13.5644 9.13441H15.6555C15.9033 9.13441 16.1345 9.15063 16.3454 9.18476C16.4058 9.19443 16.4644 9.20552 16.5216 9.21803C16.5785 9.23083 16.6339 9.24506 16.6877 9.26069C16.7144 9.26866 16.7408 9.2769 16.7667 9.28516C16.8705 9.31957 16.9669 9.36024 17.0559 9.40717C17.1606 8.73965 17.0551 8.28515 16.6942 7.8736C16.2963 7.42053 15.5781 7.22656 14.6592 7.22656H11.9914C11.8036 7.22656 11.6436 7.36308 11.6145 7.5488L10.5033 14.5923C10.4814 14.7317 10.5889 14.8574 10.7294 14.8574H12.3765L12.79 12.2337L13.2348 9.41627Z" fill="#253B80"/>
</svg>
