<svg width="28" height="28" viewBox="0 0 28 28" fill="none" xmlns="http://www.w3.org/2000/svg">
<path d="M0.5 6.66699C0.5 5.83856 1.17157 5.16699 2 5.16699H26C26.8284 5.16699 27.5 5.83857 27.5 6.66699V21.3337C27.5 22.1621 26.8284 22.8337 26 22.8337H2C1.17157 22.8337 0.5 22.1621 0.5 21.3337V6.66699Z" fill="white" stroke="#E4E4E4"/>
<path fillRule="evenodd" clipRule="evenodd" d="M9.30467 16.9932H7.67909L6.46011 12.2753C6.40225 12.0583 6.2794 11.8664 6.09869 11.776C5.64771 11.5487 5.15077 11.3679 4.60864 11.2767V11.095H7.22732C7.58874 11.095 7.8598 11.3679 7.90498 11.6848L8.53746 15.0879L10.1622 11.095H11.7426L9.30467 16.9932ZM12.6462 16.9932H11.111L12.3751 11.095H13.9103L12.6462 16.9932ZM15.8962 12.729C15.9414 12.4113 16.2124 12.2297 16.5287 12.2297C17.0256 12.1841 17.5669 12.2753 18.0187 12.5017L18.2898 11.2318C17.838 11.0502 17.3411 10.959 16.8901 10.959C15.4 10.959 14.3158 11.776 14.3158 12.9098C14.3158 13.7724 15.0838 14.2253 15.6259 14.4982C16.2124 14.7703 16.4383 14.9519 16.3931 15.224C16.3931 15.6321 15.9414 15.8137 15.4904 15.8137C14.9483 15.8137 14.4061 15.6777 13.91 15.4504L13.6389 16.7211C14.181 16.9476 14.7675 17.0388 15.3097 17.0388C16.9804 17.0836 18.0187 16.2674 18.0187 15.0423C18.0187 13.4996 15.8962 13.4091 15.8962 12.729ZM23.392 16.9932L22.173 11.095H20.8637C20.5926 11.095 20.3215 11.2767 20.2312 11.5487L17.9739 16.9932H19.5543L19.8698 16.1314H21.8116L21.9923 16.9932H23.392ZM21.0895 12.6834L21.5405 14.9063H20.2763L21.0895 12.6834Z" fill="#172B85"/>
</svg>
