<svg width="38" height="36" viewBox="0 0 38 36" fill="none" xmlns="http://www.w3.org/2000/svg">
  <path
    d="M35 9H3M35 9C36.1046 9 37 9.89543 37 11V31C37 32.1046 36.1046 33 35 33H3C1.89543 33 1 32.1046 1 31V11C1 9.89543 1.89543 9 3 9M35 9V8C35 6.89543 34.1046 6 33 6M3 9V8C3 6.89543 3.89543 6 5 6M5 6H33M5 6C5 4.89543 5.89543 4 7 4H31C32.1046 4 33 4.89543 33 6M16 17.5359V24.4641C16 25.2339 16.8333 25.715 17.5 25.3301L23.5 21.866C24.1667 21.4811 24.1667 20.5189 23.5 20.134L17.5 16.6699C16.8333 16.285 16 16.7661 16 17.5359Z"
    stroke="#7C3776" />
  <line x1="1.5" y1="29.5" x2="36.5" y2="29.5" stroke="#7C3776" stroke-linecap="round"
    stroke-dasharray="2 3" />
  <line x1="1.5" y1="12.5" x2="36.5" y2="12.5" stroke="#7C3776" stroke-linecap="round"
    stroke-dasharray="2 3" />
</svg>