<svg width="38" height="37" viewBox="0 0 38 37" fill="none" xmlns="http://www.w3.org/2000/svg">
<path d="M1 14C1 12.8954 1.89543 12 3 12H35C36.1046 12 37 12.8954 37 14V34C37 35.1046 36.1046 36 35 36H3C1.89543 36 1 35.1046 1 34V14Z" stroke="#7C3776"/>
<path d="M23.5 23.134C24.1667 23.5189 24.1667 24.4811 23.5 24.866L17.5 28.3301C16.8333 28.715 16 28.2339 16 27.4641V20.5359C16 19.7661 16.8333 19.285 17.5 19.6699L23.5 23.134Z" stroke="#7C3776"/>
<path d="M6.29225 11.9968L5.32868 8.20795C5.14719 7.49429 5.57859 6.76862 6.29225 6.58712L26.9675 1.32905C27.6811 1.14755 28.4068 1.57896 28.5883 2.29262L31.0562 11.9968M21.1707 12L21.6514 11.5314C22.0189 11.1732 21.8608 10.5515 21.3668 10.4123L16.921 9.16006C16.427 9.02092 15.9676 9.46871 16.0941 9.96607L16.6114 12" stroke="#7C3776"/>
<line x1="1.5" y1="32.5" x2="36.5" y2="32.5" stroke="#7C3776" stroke-linecap="round" stroke-dasharray="2 3"/>
<line x1="1.5" y1="15.5" x2="36.5" y2="15.5" stroke="#7C3776" stroke-linecap="round" stroke-dasharray="2 3"/>
</svg>
