<svg width="272" height="34" viewBox="0 0 272 34" fill="none" xmlns="http://www.w3.org/2000/svg">
<path d="M64.3871 26.1538H62.3661C62.0026 26.1538 61.8208 25.9759 61.8208 25.6202V6.50698C61.8208 6.15129 62.0026 5.97345 62.3661 5.97345H72.4388C72.8024 5.97345 72.9842 6.15129 72.9842 6.50698V8.1076C72.9842 8.46329 72.8024 8.64114 72.4388 8.64114H65.3174C65.0607 8.64114 64.9324 8.74575 64.9324 8.95498V14.8867C64.9324 15.1168 65.0607 15.2319 65.3174 15.2319H71.5085C71.8935 15.2319 72.086 15.4098 72.086 15.7654V17.3347C72.086 17.7113 71.8935 17.8996 71.5085 17.8996H65.3174C65.0607 17.8996 64.9324 18.0042 64.9324 18.2134V25.6202C64.9324 25.9759 64.7506 26.1538 64.3871 26.1538Z" fill="#7C3776"/>
<path d="M80.6328 26.1538H79.3818C77.7992 26.1538 76.5695 25.7248 75.6927 24.867C74.8373 24.0091 74.4096 22.8165 74.4096 21.2891V15.0122C74.4096 13.4639 74.8373 12.2713 75.6927 11.4344C76.5695 10.5765 77.7992 10.1476 79.3818 10.1476H86.5674C86.9523 10.1476 87.1448 10.3254 87.1448 10.6811V25.6202C87.1448 25.9759 86.9523 26.1538 86.5674 26.1538H84.5464C84.1829 26.1538 84.0011 25.9759 84.0011 25.6202V24.4904H83.8728C83.3595 25.5993 82.2795 26.1538 80.6328 26.1538ZM84.0011 20.8184V13.1291C84.0011 12.9199 83.8835 12.8153 83.6482 12.8153H79.8309C78.2911 12.8153 77.5212 13.5894 77.5212 15.1378V21.1636C77.5212 22.7119 78.2911 23.4861 79.8309 23.4861H81.3706C83.1243 23.4861 84.0011 22.5968 84.0011 20.8184Z" fill="#7C3776"/>
<path d="M93.2735 23.4861H97.2512C98.791 23.4861 99.5609 22.7119 99.5609 21.1636V15.0122C99.5609 13.4639 98.791 12.6898 97.2512 12.6898H95.5511C93.7974 12.6898 92.9206 13.5685 92.9206 15.3261V23.1408C92.9206 23.371 93.0382 23.4861 93.2735 23.4861ZM89.809 25.6202V4.62391C89.809 4.26822 89.9908 4.09037 90.3543 4.09037H92.3753C92.7388 4.09037 92.9206 4.26822 92.9206 4.62391V11.7168H93.0489C93.5836 10.587 94.6635 10.0221 96.2889 10.0221H97.7003C99.2829 10.0221 100.513 10.451 101.389 11.3088C102.266 12.1458 102.705 13.3279 102.705 14.8553V21.2891C102.705 22.8165 102.266 24.0091 101.389 24.867C100.513 25.7248 99.2829 26.1538 97.7003 26.1538H90.3543C89.9908 26.1538 89.809 25.9759 89.809 25.6202Z" fill="#7C3776"/>
<path d="M107.642 26.1538H105.621C105.257 26.1538 105.076 25.9759 105.076 25.6202V10.6811C105.076 10.3254 105.257 10.1476 105.621 10.1476H107.642C108.005 10.1476 108.187 10.3254 108.187 10.6811V11.8738H108.316C108.529 11.3507 108.936 10.9322 109.534 10.6184C110.155 10.3045 110.839 10.1476 111.588 10.1476H112.774C113.138 10.1476 113.32 10.3254 113.32 10.6811V12.3131C113.32 12.7107 113.138 12.8781 112.774 12.8153H110.85C109.075 12.8153 108.187 13.7673 108.187 15.6713V25.6202C108.187 25.9759 108.005 26.1538 107.642 26.1538Z" fill="#7C3776"/>
<path d="M114.644 7.47991V4.62391C114.644 4.28914 114.816 4.12176 115.158 4.12176H117.243C117.585 4.12176 117.756 4.28914 117.756 4.62391V7.47991C117.756 7.8356 117.585 8.01345 117.243 8.01345H115.158C114.816 8.01345 114.644 7.8356 114.644 7.47991ZM114.644 25.6202V10.6811C114.644 10.3254 114.816 10.1476 115.158 10.1476H117.211C117.574 10.1476 117.756 10.3254 117.756 10.6811V25.6202C117.756 25.8294 117.713 25.9759 117.628 26.0596C117.564 26.1224 117.435 26.1538 117.243 26.1538H115.19C114.826 26.1538 114.644 25.9759 114.644 25.6202Z" fill="#7C3776"/>
<path d="M130.579 24.0196V25.6516C130.579 25.9864 130.386 26.1538 130.001 26.1538H125.286C123.703 26.1538 122.474 25.7248 121.597 24.867C120.741 24.0091 120.314 22.8165 120.314 21.2891V15.0122C120.314 13.4639 120.741 12.2713 121.597 11.4344C122.474 10.5765 123.703 10.1476 125.286 10.1476H130.001C130.386 10.1476 130.579 10.3254 130.579 10.6811V12.3131C130.579 12.6479 130.386 12.8153 130.001 12.8153H125.735C124.195 12.8153 123.425 13.5894 123.425 15.1378V21.1636C123.425 22.7119 124.195 23.4861 125.735 23.4861H130.001C130.386 23.4861 130.579 23.6639 130.579 24.0196Z" fill="#7C3776"/>
<path d="M141.493 26.1538H139.472C139.108 26.1538 138.926 25.9759 138.926 25.6202V6.50698C138.926 6.15129 139.108 5.97345 139.472 5.97345H147.106C148.668 5.97345 149.887 6.40237 150.763 7.26022C151.64 8.09714 152.079 9.28975 152.079 10.8381V14.1021C152.079 15.6294 151.64 16.8221 150.763 17.6799C149.887 18.5378 148.668 18.9667 147.106 18.9667H142.423C142.166 18.9667 142.038 19.0713 142.038 19.2805V25.6202C142.038 25.9759 141.856 26.1538 141.493 26.1538ZM142.391 16.2676H146.657C148.176 16.2676 148.935 15.4934 148.935 13.9451V10.9636C148.935 9.41529 148.176 8.64114 146.657 8.64114H142.391C142.156 8.64114 142.038 8.74575 142.038 8.95498V15.9538C142.038 16.163 142.156 16.2676 142.391 16.2676Z" fill="#7C3776"/>
<path d="M156.944 26.1538H154.923C154.559 26.1538 154.377 25.9759 154.377 25.6202V4.62391C154.377 4.26822 154.559 4.09037 154.923 4.09037H156.944C157.307 4.09037 157.489 4.26822 157.489 4.62391V25.6202C157.489 25.9759 157.307 26.1538 156.944 26.1538Z" fill="#7C3776"/>
<path d="M166.27 26.1538H165.019C163.436 26.1538 162.207 25.7248 161.33 24.867C160.474 24.0091 160.047 22.8165 160.047 21.2891V15.0122C160.047 13.4639 160.474 12.2713 161.33 11.4344C162.207 10.5765 163.436 10.1476 165.019 10.1476H172.204C172.589 10.1476 172.782 10.3254 172.782 10.6811V25.6202C172.782 25.9759 172.589 26.1538 172.204 26.1538H170.183C169.82 26.1538 169.638 25.9759 169.638 25.6202V24.4904H169.51C168.996 25.5993 167.917 26.1538 166.27 26.1538ZM169.638 20.8184V13.1291C169.638 12.9199 169.52 12.8153 169.285 12.8153H165.468C163.928 12.8153 163.158 13.5894 163.158 15.1378V21.1636C163.158 22.7119 163.928 23.4861 165.468 23.4861H167.008C168.761 23.4861 169.638 22.5968 169.638 20.8184Z" fill="#7C3776"/>
<path d="M177.371 31.2381H175.671C175.307 31.2381 175.125 31.0602 175.125 30.7045V29.1039C175.125 28.7273 175.307 28.539 175.671 28.539H176.408C177.713 28.539 178.611 28.2879 179.103 27.7858C179.616 27.2836 180.044 26.4571 180.386 25.3064H179.103C178.782 25.3064 178.558 25.1285 178.429 24.7728L174.163 10.6811C174.077 10.3254 174.216 10.1476 174.58 10.1476H176.729C177.071 10.1476 177.285 10.3254 177.371 10.6811L180.867 22.9839H180.996L184.492 10.6811C184.556 10.3254 184.77 10.1476 185.134 10.1476H187.187C187.593 10.1476 187.764 10.3359 187.7 10.7125L183.305 25.8085C182.813 27.5661 182.118 28.9051 181.22 29.8258C180.322 30.7673 179.039 31.2381 177.371 31.2381Z" fill="#7C3776"/>
<path d="M195.05 25.3691H193.607C192.067 25.3691 190.88 24.9507 190.046 24.1138C189.233 23.2559 188.827 22.0528 188.827 20.5045V15.0122C188.827 13.4639 189.265 12.2713 190.142 11.4344C191.019 10.5765 192.238 10.1476 193.799 10.1476H200.985C201.37 10.1476 201.562 10.3254 201.562 10.6811V26.2165C201.562 27.7439 201.113 28.9261 200.215 29.763C199.338 30.6208 198.119 31.0498 196.558 31.0498H190.527C190.164 31.0498 189.982 30.8824 189.982 30.5476V28.9156C189.982 28.5599 190.164 28.3821 190.527 28.3821H196.077C197.638 28.3821 198.418 27.6079 198.418 26.0596V23.6744H198.29C197.755 24.8042 196.675 25.3691 195.05 25.3691ZM198.418 20.0338V13.1291C198.418 12.9199 198.301 12.8153 198.066 12.8153H194.248C192.73 12.8153 191.971 13.5894 191.971 15.1378V20.3476C191.971 21.8959 192.73 22.6701 194.248 22.6701H195.788C197.542 22.6701 198.418 21.7913 198.418 20.0338Z" fill="#7C3776"/>
<path d="M206.791 26.1538H204.77C204.407 26.1538 204.225 25.9759 204.225 25.6202V10.6811C204.225 10.3254 204.407 10.1476 204.77 10.1476H206.791C207.155 10.1476 207.336 10.3254 207.336 10.6811V11.8738H207.465C207.679 11.3507 208.085 10.9322 208.684 10.6184C209.304 10.3045 209.988 10.1476 210.737 10.1476H211.924C212.287 10.1476 212.469 10.3254 212.469 10.6811V12.3131C212.469 12.7107 212.287 12.8781 211.924 12.8153H209.999C208.224 12.8153 207.336 13.7673 207.336 15.6713V25.6202C207.336 25.9759 207.155 26.1538 206.791 26.1538Z" fill="#7C3776"/>
<path d="M221.108 26.1538H218.285C216.702 26.1538 215.472 25.7248 214.596 24.867C213.74 24.0091 213.312 22.8165 213.312 21.2891V15.0122C213.312 13.4639 213.74 12.2713 214.596 11.4344C215.472 10.5765 216.702 10.1476 218.285 10.1476H221.108C222.669 10.1476 223.888 10.5765 224.765 11.4344C225.663 12.2713 226.112 13.4639 226.112 15.0122V21.2891C226.112 22.8165 225.663 24.0091 224.765 24.867C223.888 25.7248 222.669 26.1538 221.108 26.1538ZM218.734 23.4861H220.691C222.23 23.4861 223 22.7224 223 21.195V15.1064C223 13.579 222.23 12.8153 220.691 12.8153H218.734C217.921 12.8153 217.333 13.0036 216.969 13.3802C216.606 13.7359 216.424 14.3113 216.424 15.1064V21.195C216.424 21.9901 216.606 22.5759 216.969 22.9525C217.333 23.3082 217.921 23.4861 218.734 23.4861Z" fill="#7C3776"/>
<path d="M234.524 26.1538H233.081C231.541 26.1538 230.354 25.7353 229.52 24.8984C228.707 24.0405 228.301 22.8374 228.301 21.2891V10.6811C228.301 10.3254 228.483 10.1476 228.846 10.1476H230.867C231.231 10.1476 231.413 10.3254 231.413 10.6811V21.1636C231.413 22.7119 232.182 23.4861 233.722 23.4861H235.262C237.016 23.4861 237.892 22.5968 237.892 20.8184V10.6811C237.892 10.3254 238.074 10.1476 238.438 10.1476H240.459C240.844 10.1476 241.036 10.3254 241.036 10.6811V25.6202C241.036 25.9759 240.844 26.1538 240.459 26.1538H238.438C238.074 26.1538 237.892 25.9759 237.892 25.6202V24.4904H237.764C237.251 25.5993 236.171 26.1538 234.524 26.1538Z" fill="#7C3776"/>
<path d="M246.263 26.1538H244.242C243.878 26.1538 243.697 25.9759 243.697 25.6202V10.6811C243.697 10.3254 243.878 10.1476 244.242 10.1476H246.263C246.626 10.1476 246.808 10.3254 246.808 10.6811V11.811H246.937C247.45 10.7021 248.53 10.1476 250.176 10.1476H251.588C253.149 10.1476 254.347 10.5661 255.181 11.403C256.015 12.2399 256.432 13.443 256.432 15.0122V25.6202C256.432 25.9759 256.239 26.1538 255.854 26.1538H253.833C253.47 26.1538 253.288 25.9759 253.288 25.6202V15.1378C253.288 13.5894 252.508 12.8153 250.946 12.8153H249.439C247.685 12.8153 246.808 13.7045 246.808 15.483V25.6202C246.808 25.9759 246.626 26.1538 246.263 26.1538Z" fill="#7C3776"/>
<path d="M265.027 26.1538H263.391C261.851 26.1538 260.664 25.7353 259.83 24.8984C259.017 24.0405 258.611 22.8374 258.611 21.2891V15.0122C258.611 13.443 259.017 12.2399 259.83 11.403C260.664 10.5661 261.851 10.1476 263.391 10.1476H265.027C266.673 10.1476 267.743 10.7021 268.235 11.811H268.363V4.62391C268.363 4.26822 268.545 4.09037 268.908 4.09037H270.961C271.325 4.09037 271.507 4.26822 271.507 4.62391V25.6202C271.507 25.9759 271.325 26.1538 270.961 26.1538H268.908C268.545 26.1538 268.363 25.9759 268.363 25.6202V24.4904H268.235C267.743 25.5993 266.673 26.1538 265.027 26.1538ZM268.363 20.8184V15.483C268.363 13.7045 267.486 12.8153 265.733 12.8153H264.032C262.493 12.8153 261.723 13.5894 261.723 15.1378V21.1636C261.723 22.7119 262.493 23.4861 264.032 23.4861H265.733C267.486 23.4861 268.363 22.5968 268.363 20.8184Z" fill="#7C3776"/>
<path fillRule="evenodd" clipRule="evenodd" d="M38.1906 13.6743C36.192 15.1194 33.3115 15.2877 29.0283 14.0552C24.163 12.6551 19.5166 12.9865 15.4823 15.1698C16.1051 15.458 16.7198 15.7754 17.3251 16.1088C18.6295 16.8271 19.9423 17.65 21.2407 18.4694L21.5021 18.6345C21.8199 18.8352 22.1372 19.0355 22.4542 19.2344C24.0481 18.4175 25.9078 17.9182 28.1824 18.0532C33.081 18.3439 36.4993 20.5966 39.2287 22.6359C39.2809 22.6028 39.3327 22.5693 39.384 22.5352C40.9717 21.4809 42.2137 19.9007 43.5327 17.9981C43.7832 17.6369 44.0357 17.2639 44.2934 16.8835L44.295 16.8811L44.2953 16.8806C46.6652 13.3806 49.4679 9.24132 55.0921 7.62291L56.3744 7.25393L57.1287 9.76304L55.8464 10.132C51.2048 11.4677 48.9361 14.7939 46.5094 18.3518L46.5088 18.3527L46.5064 18.3562C46.2552 18.7244 46.0024 19.0951 45.7451 19.4663C44.5389 21.206 43.2078 22.9744 41.4465 24.3016C41.5283 24.3607 41.6095 24.4188 41.6901 24.4759C43.3105 25.6215 44.6725 26.3277 46.1522 26.4019C47.6005 26.4745 49.4307 25.949 51.9761 24.0143L53.0316 23.212L54.6717 25.2773L53.6162 26.0796C50.7825 28.2334 48.334 29.1301 46.0154 29.0138C43.7282 28.8991 41.8353 27.8054 40.1244 26.5957C39.7232 26.312 39.3278 26.0204 38.9341 25.7259C37.2163 26.4128 35.2001 26.6943 32.7623 26.4358C29.5474 26.0949 26.5551 24.706 23.8108 23.1314C23.3487 22.8662 22.8897 22.5934 22.4349 22.3171C22.4175 22.3294 22.4 22.3417 22.3826 22.354C21.5821 22.9209 20.8293 23.587 20.0525 24.3091C19.8596 24.4884 19.6632 24.6732 19.4638 24.8608C18.8813 25.4089 18.2736 25.9806 17.6563 26.5076C15.9734 27.9441 13.9851 29.261 11.3076 29.5171C9.49833 29.6902 7.48654 29.369 5.16152 28.4283C4.72777 29.5824 4.32693 30.8084 3.9622 32.1083L3.60838 33.3694L1.03052 32.677L1.38434 31.416C1.7923 29.962 2.24646 28.5852 2.74411 27.2852C2.38688 27.0936 2.02275 26.889 1.65142 26.671L0.505311 25.9981L1.88076 23.7555L3.02687 24.4283C3.27915 24.5764 3.52607 24.7168 3.76778 24.8498C5.37049 21.3706 7.32368 18.5343 9.56113 16.3321C9.48358 16.3342 9.40624 16.3376 9.32912 16.3423C7.38921 16.4619 5.31139 17.4562 3.06703 20.3305L2.25562 21.3696L0.131348 19.7819L0.942763 18.7427C3.5102 15.4547 6.23597 13.9124 9.16108 13.7321C10.2271 13.6664 11.281 13.7853 12.3183 14.0348C12.4743 13.9261 12.6314 13.8199 12.7895 13.7163C17.8441 10.4048 23.779 9.81846 29.7826 11.5461C33.8127 12.7058 35.6319 12.2722 36.6017 11.571C37.1153 11.1996 37.5234 10.6645 37.8964 9.93755C38.2432 9.26161 38.5204 8.50358 38.8378 7.63551L38.9352 7.36951C39.6171 5.5103 40.497 3.18518 42.6615 1.65557C44.8678 0.0964407 48.1016 -0.448196 53.0271 0.397225L54.3436 0.623192L53.8817 3.19923L52.5652 2.97327C47.9673 2.18409 45.5939 2.80964 44.2267 3.77574C42.8178 4.77137 42.1579 6.32652 41.4513 8.25289C41.4177 8.34441 41.3839 8.43707 41.3498 8.53065C41.0435 9.36999 40.7102 10.2831 40.2855 11.1109C39.8045 12.0482 39.1613 12.9724 38.1906 13.6743ZM6.1673 26.0053C8.19058 26.8261 9.76799 27.0365 11.0475 26.9142C12.9096 26.7361 14.3812 25.8323 15.8988 24.5369C16.4632 24.0551 17.0022 23.548 17.5705 23.0133C17.7792 22.817 17.9918 22.617 18.2111 22.4132C18.7836 21.8809 19.3881 21.3359 20.0358 20.8214L19.7915 20.6672C18.4869 19.8438 17.2382 19.0621 16.0139 18.3879C14.9062 17.7779 13.8583 17.2794 12.8567 16.9258C10.2982 18.9931 8.00829 21.9816 6.1673 26.0053ZM25.2659 20.9341C27.8752 22.4228 30.4396 23.5588 33.0504 23.8356C34.2824 23.9663 35.3454 23.9313 36.2788 23.7677C34.0096 22.1921 31.4996 20.8702 28.0205 20.6637C26.9985 20.6031 26.0925 20.7063 25.2659 20.9341Z" fill="#7C3776"/>
</svg>
